<?xml version="1.0" encoding="utf-8" standalone="yes"?>
<!DOCTYPE svg PUBLIC "-//W3C//DTD SVG 1.1//EN" "http://www.w3.org/Graphics/SVG/1.1/DTD/svg11.dtd">
<!-- Generator: Adobe Illustrator 18.0.0, SVG Export Plug-In . SVG Version: 6.00 Build 0)  --><svg xmlns="http://www.w3.org/2000/svg" xmlns:xlink="http://www.w3.org/1999/xlink" version="1.1" id="Layer_1" x="0px" y="0px" viewBox="0 0 129.5 129.5" enable-background="new 0 0 129.5 129.5" xml:space="preserve"><g><g><g><path fill="#231F20" d="M79.6,2.8c-0.2,0-0.4-0.1-0.5-0.2c-0.3-0.3-0.3-0.8,0-1.1l1.3-1.3c0.3-0.3,0.8-0.3,1.1,0     c0.3,0.3,0.3,0.8,0,1.1l-1.3,1.3C80,2.7,79.8,2.8,79.6,2.8z"></path></g><g><path fill="#231F20" d="M75.6,6.8c-0.2,0-0.4-0.1-0.5-0.2c-0.3-0.3-0.3-0.8,0-1.1l1.3-1.3c0.3-0.3,0.8-0.3,1.1,0     c0.3,0.3,0.3,0.8,0,1.1l-1.3,1.3C76,6.7,75.8,6.8,75.6,6.8z"></path></g><g><path fill="#231F20" d="M80.9,6.8c-0.2,0-0.4-0.1-0.5-0.2l-1.3-1.3c-0.3-0.3-0.3-0.8,0-1.1c0.3-0.3,0.8-0.3,1.1,0l1.3,1.3     c0.3,0.3,0.3,0.8,0,1.1C81.3,6.7,81.1,6.8,80.9,6.8z"></path></g><g><path fill="#231F20" d="M76.9,2.8c-0.2,0-0.4-0.1-0.5-0.2L75,1.3c-0.3-0.3-0.3-0.8,0-1.1c0.3-0.3,0.8-0.3,1.1,0l1.3,1.3     c0.3,0.3,0.3,0.8,0,1.1C77.2,2.7,77,2.8,76.9,2.8z"></path></g><g><path fill="#231F20" d="M65.7,27.1c-0.2,0-0.4-0.1-0.5-0.2c-0.3-0.3-0.3-0.8,0-1.1l1.3-1.3c0.3-0.3,0.8-0.3,1.1,0     c0.3,0.3,0.3,0.8,0,1.1l-1.3,1.3C66.1,27,65.9,27.1,65.7,27.1z"></path></g><g><path fill="#231F20" d="M61.7,31.1c-0.2,0-0.4-0.1-0.5-0.2c-0.3-0.3-0.3-0.8,0-1.1l1.3-1.3c0.3-0.3,0.8-0.3,1.1,0     c0.3,0.3,0.3,0.8,0,1.1l-1.3,1.3C62.1,31.1,61.9,31.1,61.7,31.1z"></path></g><g><path fill="#231F20" d="M67,31.1c-0.2,0-0.4-0.1-0.5-0.2l-1.3-1.3c-0.3-0.3-0.3-0.8,0-1.1c0.3-0.3,0.8-0.3,1.1,0l1.3,1.3     c0.3,0.3,0.3,0.8,0,1.1C67.4,31.1,67.2,31.1,67,31.1z"></path></g><g><path fill="#231F20" d="M63,27.1c-0.2,0-0.4-0.1-0.5-0.2l-1.3-1.3c-0.3-0.3-0.3-0.8,0-1.1c0.3-0.3,0.8-0.3,1.1,0l1.3,1.3     c0.3,0.3,0.3,0.8,0,1.1C63.4,27,63.2,27.1,63,27.1z"></path></g><g><path fill="#231F20" d="M46.2,14.8h-8.1c-0.4,0-0.8-0.3-0.8-0.8c0-0.4,0.3-0.8,0.8-0.8h8.1c0.4,0,0.8,0.3,0.8,0.8     C47,14.4,46.7,14.8,46.2,14.8z"></path></g><g><path fill="#231F20" d="M49.4,17.7h-4c-0.4,0-0.8-0.3-0.8-0.8s0.3-0.8,0.8-0.8h4c0.4,0,0.8,0.3,0.8,0.8S49.8,17.7,49.4,17.7z"></path></g><g><path fill="#231F20" d="M53.7,14.8h-3.8c-0.4,0-0.8-0.3-0.8-0.8c0-0.4,0.3-0.8,0.8-0.8h3.8c0.4,0,0.8,0.3,0.8,0.8     C54.4,14.4,54.1,14.8,53.7,14.8z"></path></g><g><path fill="#231F20" d="M42.6,17.7h-0.8c-0.4,0-0.8-0.3-0.8-0.8s0.3-0.8,0.8-0.8h0.8c0.4,0,0.8,0.3,0.8,0.8S43,17.7,42.6,17.7z"></path></g><g><path fill="#E6E9EE" d="M64.4,62c0,0,11.9-20.3,57.6-10.4l6.4,65.6c0,0-44.8-8.3-64,11.5V62z"></path></g><path fill="#FFFFFF" d="M64.4,62c0,0,11-21.4,52.9-15.8l5.9,65c0,0-41.2-4.1-58.8,17.6V62z"></path><g><path fill="#E6E9EE" d="M64.4,62c0,0,9.8-22.9,47.1-22.9l5.3,64.2c0,0-36.7,1.4-52.4,25.4V62z"></path></g><path fill="#FFFFFF" d="M64.4,62c0,0,8.6-24.4,41.3-30l4.6,63.4c0,0-32.2,7-45.9,33.4V62z"></path><g><path fill="#E6E9EE" d="M64.4,62c0,0-11.9-20.3-57.6-10.4l-6.4,65.6c0,0,44.8-8.3,64,11.5V62z"></path></g><path fill="#FFFFFF" d="M64.4,62c0,0-11-21.4-52.9-15.8l-5.9,65c0,0,41.2-4.1,58.8,17.6V62z"></path><g><path fill="#E6E9EE" d="M64.4,62c0,0-9.8-22.9-47.1-22.9L12,103.4c0,0,36.7,1.4,52.4,25.4V62z"></path></g><path fill="#FFFFFF" d="M64.4,62c0,0-8.6-24.4-41.3-30l-4.6,63.4c0,0,32.2,7,45.9,33.4V62z"></path><path fill="#FFFFFF" d="M94.8,33.6c-2.5-2.6-4.3-6-5-9.9C87.9,13.1,94.9,3,105.4,1.1c10.6-1.9,20.7,5.1,22.6,15.6    c1.9,10.6-5.1,20.7-15.6,22.6c-3.9,0.7-7.7,0.2-11-1.2l-8.1,4.7L94.8,33.6z"></path><path fill="#231F20" d="M112.6,40.1c5.3-1,9.9-3.9,13-8.4s4.2-9.8,3.3-15.1C127,7,118.7,0,109,0c-1.2,0-2.4,0.1-3.6,0.3    c-5.3,1-9.9,3.9-13,8.4c-3.1,4.4-4.2,9.8-3.3,15.1c0.7,3.7,2.4,7.2,5,10l-0.1,0.5c-19.3,7.1-27.3,21-29.6,25.8    C61.7,54.5,51,36,23.2,31.2c-0.2,0-0.4,0-0.6,0.1c-0.2,0.1-0.3,0.3-0.3,0.5l-4.6,63.4c0,0.4,0.2,0.7,0.6,0.8    c0.3,0.1,27.4,6.2,42.1,27.5c-13.5-11.6-34.6-13.5-46.8-13.5c-3.4,0-5.9,0.1-7.2,0.2l5.8-63.5c1.5-0.2,3-0.4,4.5-0.5l0.1-1.5    c-1.8,0.1-3.6,0.3-5.4,0.6c-0.3,0-0.6,0.3-0.6,0.7l-5.9,65c0,0.2,0.1,0.5,0.2,0.6c0.2,0.2,0.4,0.3,0.6,0.2c0,0,3.2-0.3,7.9-0.3    c13.4,0,37.8,2.3,50.2,17.6c0.1,0.2,0.4,0.3,0.6,0.3c0.1,0,0.2,0,0.3-0.1c0.1,0,0.2-0.1,0.3-0.2c0,0,0,0,0,0    c12.4-15.3,36.8-17.6,50.2-17.6c4.8,0,7.9,0.3,7.9,0.3c0.2,0,0.4-0.1,0.6-0.2c0.2-0.2,0.2-0.4,0.2-0.6l-5.9-65    c0-0.3-0.3-0.6-0.7-0.7c-1.8-0.3-3.6-0.4-5.4-0.6l0.1,1.5c1.5,0.1,3,0.3,4.5,0.5l5.8,63.5c-1.3-0.1-3.8-0.2-7.2-0.2    c-12.2,0-33.3,1.9-46.8,13.5c14.7-21.3,41.8-27.4,42.1-27.5c0.4-0.1,0.6-0.4,0.6-0.8l-4-55C108.9,40.5,110.7,40.4,112.6,40.1z     M63.6,125.9c-13.3-22.4-39.9-29.9-44.4-31.1l4.5-62c30.1,5.6,39.2,27.5,39.9,29.3V125.9z M90.5,23.5c-0.9-4.9,0.2-9.9,3-14    c2.8-4.1,7.1-6.9,12-7.8c1.1-0.2,2.3-0.3,3.4-0.3c9,0,16.7,6.5,18.4,15.3c0.9,4.9-0.2,9.9-3,14c-2.8,4.1-7.1,6.9-12,7.8    c-3.6,0.7-7.2,0.3-10.6-1.2c-0.2-0.1-0.5-0.1-0.7,0l-6.7,3.9l1.3-7.7c0-0.2,0-0.5-0.2-0.6C92.9,30.4,91.2,27.1,90.5,23.5z     M109.5,94.8c-4.5,1.1-31.1,8.7-44.4,31.1V62.1c0.6-1.5,7.4-18,28.5-26.1l-1.1,6.7c0,0.3,0.1,0.6,0.3,0.7c0.1,0.1,0.3,0.1,0.4,0.1    c0.1,0,0.3,0,0.4-0.1l7.8-4.5c1.3,0.5,2.7,0.9,4.1,1.2L109.5,94.8z"></path><g><circle fill="#FFD05B" cx="64.4" cy="83.9" r="16.5"></circle></g><g><path fill="#FFFFFF" d="M54.2,87.8c1.5,4.1,5.5,7.1,10.2,7.1s8.6-2.9,10.2-7.1H54.2z"></path><path fill="#231F20" d="M64.4,95.6c-4.8,0-9.2-3-10.9-7.6c-0.1-0.2-0.1-0.5,0.1-0.7c0.1-0.2,0.4-0.3,0.6-0.3h20.4     c0.2,0,0.5,0.1,0.6,0.3c0.1,0.2,0.2,0.5,0.1,0.7C73.6,92.6,69.2,95.6,64.4,95.6z M55.3,88.5c1.7,3.4,5.2,5.6,9.1,5.6     c3.8,0,7.3-2.2,9.1-5.6H55.3z"></path></g><g><circle fill="#FFFFFF" cx="70.8" cy="79.8" r="2.5"></circle><path fill="#231F20" d="M70.8,83.1c-1.8,0-3.3-1.5-3.3-3.3c0-1.8,1.5-3.3,3.3-3.3c1.8,0,3.3,1.5,3.3,3.3     C74.1,81.6,72.6,83.1,70.8,83.1z M70.8,78.1c-1,0-1.8,0.8-1.8,1.8c0,1,0.8,1.8,1.8,1.8c1,0,1.8-0.8,1.8-1.8     C72.6,78.9,71.8,78.1,70.8,78.1z"></path></g><g><circle fill="#FFFFFF" cx="57.9" cy="79.8" r="2.5"></circle><path fill="#231F20" d="M57.9,83.1c-1.8,0-3.3-1.5-3.3-3.3c0-1.8,1.5-3.3,3.3-3.3c1.8,0,3.3,1.5,3.3,3.3     C61.2,81.6,59.7,83.1,57.9,83.1z M57.9,78.1c-1,0-1.8,0.8-1.8,1.8c0,1,0.8,1.8,1.8,1.8s1.8-0.8,1.8-1.8     C59.7,78.9,58.9,78.1,57.9,78.1z"></path></g><g><circle fill="#FFFFFF" cx="119.7" cy="19.9" r="3.5"></circle><path fill="#231F20" d="M119.7,24.1c-2.4,0-4.3-1.9-4.3-4.3s1.9-4.3,4.3-4.3c2.4,0,4.3,1.9,4.3,4.3S122,24.1,119.7,24.1z      M119.7,17.1c-1.5,0-2.8,1.2-2.8,2.8c0,1.5,1.2,2.8,2.8,2.8c1.5,0,2.8-1.2,2.8-2.8C122.4,18.3,121.2,17.1,119.7,17.1z"></path></g><g><circle fill="#FFFFFF" cx="108.9" cy="19.9" r="3.5"></circle><path fill="#231F20" d="M108.9,24.1c-2.4,0-4.3-1.9-4.3-4.3s1.9-4.3,4.3-4.3c2.4,0,4.3,1.9,4.3,4.3S111.3,24.1,108.9,24.1z      M108.9,17.1c-1.5,0-2.8,1.2-2.8,2.8c0,1.5,1.2,2.8,2.8,2.8s2.8-1.2,2.8-2.8C111.7,18.3,110.5,17.1,108.9,17.1z"></path></g><g><circle fill="#FFFFFF" cx="98.2" cy="19.9" r="3.5"></circle><path fill="#231F20" d="M98.2,24.1c-2.4,0-4.3-1.9-4.3-4.3s1.9-4.3,4.3-4.3c2.4,0,4.3,1.9,4.3,4.3S100.5,24.1,98.2,24.1z      M98.2,17.1c-1.5,0-2.8,1.2-2.8,2.8c0,1.5,1.2,2.8,2.8,2.8s2.8-1.2,2.8-2.8C101,18.3,99.7,17.1,98.2,17.1z"></path></g><g><circle fill="#FFFFFF" cx="12.7" cy="20.5" r="11.5"></circle><g><circle fill="#FF7058" cx="12.7" cy="20.5" r="3.1"></circle></g><path fill="#231F20" d="M33.2,4.9c-0.1-0.3-0.3-0.5-0.6-0.5L29.3,4l-0.5-3.3c0-0.3-0.2-0.5-0.5-0.6c-0.3-0.1-0.6,0-0.8,0.2     l-4.5,4.5c-0.2,0.2-0.2,0.4-0.2,0.6l0.5,3.5l-2.6,2.6C16,7.1,8.6,7.3,4,11.9c-4.8,4.8-4.8,12.5,0,17.3c4.8,4.8,12.5,4.8,17.3,0     c4.6-4.6,4.7-11.9,0.5-16.7l2.6-2.6l3.5,0.5c0.2,0,0.5,0,0.6-0.2L33,5.7C33.2,5.5,33.3,5.2,33.2,4.9z M24.4,5.5l3.1-3.1l0.3,2     l-3.1,3.1L24.4,5.5z M20.3,28.1c-4.2,4.2-11,4.2-15.2,0c-4.2-4.2-4.2-11,0-15.2c4-4,10.4-4.2,14.6-0.5l-1.1,1.1     c-3.6-3.1-9-2.9-12.4,0.5c-3.6,3.6-3.6,9.4,0,13c3.6,3.6,9.4,3.6,13,0c3.4-3.4,3.6-8.8,0.5-12.4l1.1-1.1     C24.4,17.7,24.3,24.1,20.3,28.1z M16,23.9c-1.8,1.8-4.8,1.8-6.7,0c-1.8-1.8-1.8-4.8,0-6.7c1.7-1.7,4.3-1.8,6.1-0.5L12.2,20     c-0.3,0.3-0.3,0.8,0,1.1c0.3,0.3,0.8,0.3,1.1,0l3.3-3.3C17.8,19.6,17.7,22.2,16,23.9z M16.5,15.7c-2.4-1.9-6-1.8-8.2,0.5     c-2.4,2.4-2.4,6.4,0,8.8c2.4,2.4,6.4,2.4,8.8,0c2.2-2.2,2.4-5.8,0.5-8.2l1-1c2.5,3,2.3,7.5-0.5,10.3c-3,3-7.9,3-10.9,0     c-3-3-3-7.9,0-10.9c2.8-2.8,7.3-3,10.3-0.5L16.5,15.7z M27.8,8.8l-2-0.3l3.1-3.1l2,0.3L27.8,8.8z"></path></g></g></g></svg>
