<svg xmlns="http://www.w3.org/2000/svg"  viewBox="0 0 24 24" width="24px" height="24px"><path d="M18,10c-1.492,0-2.818,0.67-3.735,1.709C13.621,11.264,12.841,11,12,11s-1.621,0.264-2.265,0.709C8.818,10.67,7.492,10,6,10	c-2.757,0-5,2.243-5,5s2.243,5,5,5c2.653,0,4.809-2.083,4.969-4.697C10.989,15.205,11,15.104,11,15c0-0.551,0.449-1,1-1s1,0.449,1,1	c0,0.104,0.011,0.205,0.031,0.303C13.191,17.917,15.347,20,18,20c2.757,0,5-2.243,5-5S20.757,10,18,10z M6,17c-1.103,0-2-0.897-2-2	s0.897-2,2-2s2,0.897,2,2S7.103,17,6,17z M18,17c-1.103,0-2-0.897-2-2s0.897-2,2-2s2,0.897,2,2S19.103,17,18,17z"/><circle cx="6" cy="15" r="3" opacity=".35"/><circle cx="18" cy="15" r="3" opacity=".35"/><path d="M2.501,16c-0.131,0-0.264-0.017-0.396-0.053c-0.799-0.218-1.271-1.043-1.053-1.842l1.685-6.176 c0.427-1.566,1.599-2.816,3.135-3.343C7.406,4.059,9.1,4.325,10.4,5.3c0.663,0.497,0.797,1.438,0.3,2.1 c-0.497,0.664-1.437,0.797-2.1,0.3C8.089,7.317,7.449,7.217,6.846,7.423C6.242,7.63,5.8,8.103,5.632,8.718l-1.685,6.176 C3.765,15.562,3.161,16,2.501,16z" opacity=".35"/><path d="M21.499,16c-0.66,0-1.264-0.438-1.446-1.106l-1.685-6.176c-0.168-0.616-0.61-1.088-1.214-1.295 C16.551,7.217,15.911,7.317,15.4,7.7c-0.662,0.497-1.603,0.363-2.1-0.3c-0.497-0.663-0.362-1.603,0.3-2.1 c1.299-0.975,2.992-1.241,4.528-0.714c1.536,0.527,2.708,1.777,3.135,3.343l1.685,6.176c0.218,0.799-0.253,1.624-1.053,1.842 C21.763,15.983,21.63,16,21.499,16z" opacity=".35"/><path d="M22,12c0-0.032,0.004-0.063,0.005-0.095c0-0.013-0.005-0.024-0.005-0.037V12z"/><path d="M22,15h0.001c0-0.005-0.001-0.01-0.001-0.015V15z"/></svg>