<svg xmlns="http://www.w3.org/2000/svg"  viewBox="0 0 24 24" width="24px" height="24px"><circle cx="4.972" cy="11" r="2.517" opacity=".35"/><path d="M18,21h-4c-1.105,0-2-0.895-2-2V9c0-1.105,0.895-2,2-2h4c1.105,0,2,0.895,2,2v10	C20,20.105,19.105,21,18,21z" opacity=".35"/><path d="M16.5,18c-0.079,0-0.893,0-1,0c-0.276,0-0.5,0.224-0.5,0.5c0,0.276,0.224,0.5,0.5,0.5c0.107,0,0.921,0,1,0	c0.276,0,0.5-0.224,0.5-0.5C17,18.224,16.776,18,16.5,18z"/><path d="M19,3H5C3.343,3,2,4.343,2,6v10c0,1.657,1.343,3,3,3h7V9c0-1.105,0.895-2,2-2h4c1.105,0,2,0.895,2,2v9.816	c1.163-0.413,2-1.512,2-2.816V6C22,4.343,20.657,3,19,3z M6,12c0,0.552-0.448,1-1,1c-0.552,0-1-0.448-1-1c0-0.157,0-1.785,0-2	c0-0.552,0.448-1,1-1c0.552,0,1,0.448,1,1C6,10.215,6,11.843,6,12z"/></svg>