<?xml version="1.0" encoding="utf-8"?>
<svg viewBox="0 0 24 24" width="24px" height="24px" xmlns="http://www.w3.org/2000/svg">
  <path d="M13,18c0,0-10.324,0-10.5,0C1.672,18,1,18.672,1,19.5S1.672,21,2.5,21C2.676,21,13,21,13,21V18z"/>
  <path d="M 20 7 L 14 7 C 12.343 7 11 8.343 11 10 L 11 19 C 11 20.657 12.343 22 14 22 L 15.459 22 C 14.653 22 14 21.347 14 20.541 L 14 13.459 C 14 12.653 14.653 12 15.459 12 L 18.541 12 C 19.347 12 20 12.653 20 13.459 L 20 20.541 C 20 21.347 19.347 22 18.541 22 L 20 22 C 21.657 22 23 20.657 23 19 L 23 10 C 23 8.343 21.657 7 20 7 Z"/>
  <path d="M17.5,20c-0.079,0-0.893,0-1,0c-0.276,0-0.5,0.224-0.5,0.5c0,0.276,0.224,0.5,0.5,0.5c0.107,0,0.921,0,1,0 c0.276,0,0.5-0.224,0.5-0.5C18,20.224,17.776,20,17.5,20z"/>
  <path d="M 22 7 C 22 5.343 20.657 4 19 4 L 5 4 C 3.343 4 2 5.343 2 7 L 1.997 18.176 L 13 18 L 13 20 C 13 21.105 13.895 22 15 22 L 19 22 C 20.105 22 21 21.105 21 20 L 21 18 L 22 18 L 22 7 Z" opacity=".35"/>
</svg>