<?xml version="1.0" encoding="utf-8"?>
<svg viewBox="0 0 24 24" width="24px" height="24px" xmlns="http://www.w3.org/2000/svg">
  <path d="M20,10H4c-0.552,0-1-0.448-1-1v0c0-0.552,0.448-1,1-1h16c0.552,0,1,0.448,1,1v0C21,9.552,20.552,10,20,10z"/>
  <path d="M20,16H4c-0.552,0-1-0.448-1-1v0c0-0.552,0.448-1,1-1h16c0.552,0,1,0.448,1,1v0C21,15.552,20.552,16,20,16z"/>
  <path d="M10,4v16c0,0.552-0.448,1-1,1h0c-0.552,0-1-0.448-1-1V4c0-0.552,0.448-1,1-1h0C9.552,3,10,3.448,10,4z"/>
  <path d="M16,4v16c0,0.552-0.448,1-1,1h0c-0.552,0-1-0.448-1-1V4c0-0.552,0.448-1,1-1h0C15.552,3,16,3.448,16,4z"/>
  <path d="M19,21H5c-1.105,0-2-0.895-2-2V5c0-1.105,0.895-2,2-2h14c1.105,0,2,0.895,2,2v14 C21,20.105,20.105,21,19,21z" opacity=".35"/>
</svg>