<?xml version="1.0" encoding="utf-8"?>
<svg viewBox="0 0 122 122" fill="none" xmlns="http://www.w3.org/2000/svg">
  <mask id="mask0_101_103" style="mask-type:alpha" maskUnits="userSpaceOnUse" x="0" y="0">
    <rect width="121.164" height="121.164" rx="40" fill="#EF2F3B"/>
  </mask>
  <g mask="url(#mask0_101_103)">
    <rect width="121" height="121" fill="#16242E"/>
    <path d="M 76.642 55.9796 C 83.723 61.2917 82.9775 70.0186 82.9775 70.0186 L 62.8526 70.0186 L 62.8526 52.9442 C 70.8154 53.0154 73.2917 53.4663 76.642 55.9796 Z M 59.1258 52.9442 L 64.3434 52.9442 L 64.3434 70.0187 L 59.1258 70.0187 L 59.1258 52.9442 Z M 45.3588 66.9832 C 38.2778 61.6711 39.0233 52.9442 39.0233 52.9442 L 59.1482 52.9442 L 59.1482 70.0187 C 51.1854 69.9475 48.7091 69.4965 45.3588 66.9832 Z M 76.2693 88.2481 C 72.9191 90.7614 70.4428 91.2124 62.4799 91.2836 C 53.6126 91.3628 39.0006 91.2836 39.0006 91.2836 L 45.2861 74.2091 L 82.6049 74.2091 C 82.6049 74.2091 83.3504 82.9361 76.2693 88.2481 Z M 45.3588 34.7148 C 48.7091 32.2015 51.1854 31.7506 59.1482 31.6794 C 68.0155 31.6001 82.6276 31.6794 82.6276 31.6794 L 76.7142 48.7538 L 39.0233 48.7538 C 39.0233 48.7538 38.2778 40.0269 45.3588 34.7148 Z" fill="#1BCABE"/>
  </g>
</svg>