<?xml version="1.0" encoding="UTF-8"?><svg version="1.1" viewBox="0 0 104 104" xmlns="http://www.w3.org/2000/svg" xmlns:xlink="http://www.w3.org/1999/xlink"><!--Generated by IJSVG (https://github.com/iconjar/IJSVG)--><g transform="matrix(1,0,0,1,-298,-1324)"><g transform="matrix(1,0,0,1,300,1326)"><path fill="#6FC373" fill-rule="evenodd" stroke="#263238" stroke-linecap="round" stroke-linejoin="round" stroke-width="3.5" d="M22.4117,37.5l-20.5277,10.2638c-2.47499,1.2375 -2.46998,3.23731 -1.33227e-15,4.4723l43.6437,21.8219c2.47499,1.2375 6.47462,1.23499 8.94461,0l43.6437,-21.8219c2.47499,-1.2375 2.46998,-3.23731 0,-4.4723l-20.5277,-10.2638l-23.116,11.558c-2.46998,1.23499 -6.46961,1.2375 -8.94461,0l-23.116,-11.558v0Z"></path><path fill="#76B6FF" fill-rule="evenodd" stroke="#263238" stroke-linecap="round" stroke-linejoin="round" stroke-width="3.5" d="M98.116,22.7638c2.46998,1.23499 2.47499,3.23481 0,4.4723l-43.6437,21.8219c-2.46998,1.23499 -6.46961,1.2375 -8.94461,0l-43.6437,-21.8219c-2.46998,-1.23499 -2.47499,-3.23481 2.22045e-15,-4.4723l43.6437,-21.8219c2.46998,-1.23499 6.46961,-1.2375 8.94461,1.33227e-15l43.6437,21.8219Z"></path><path fill="none" fill-rule="evenodd" stroke="#263238" stroke-linecap="round" stroke-linejoin="round" stroke-width="3.5" d="M22.4117,62.5l-20.5277,10.2638c-2.47499,1.2375 -2.46998,3.23731 -1.33227e-15,4.4723l43.6437,21.8219c2.47499,1.2375 6.47462,1.23499 8.94461,0l43.6437,-21.8219c2.47499,-1.2375 2.46998,-3.23731 0,-4.4723l-20.5277,-10.2638l-23.116,11.558c-2.46998,1.23499 -6.46961,1.2375 -8.94461,0l-23.116,-11.558v0Z"></path></g></g></svg>