<?xml version="1.0" encoding="utf-8" standalone="yes"?>
<!DOCTYPE svg PUBLIC "-//W3C//DTD SVG 1.1//EN" "http://www.w3.org/Graphics/SVG/1.1/DTD/svg11.dtd">
<!-- Generator: Adobe Illustrator 18.0.0, SVG Export Plug-In . SVG Version: 6.00 Build 0)  --><svg xmlns="http://www.w3.org/2000/svg" xmlns:xlink="http://www.w3.org/1999/xlink" version="1.1" id="Layer_1" x="0px" y="0px" viewBox="0 0 129.5 129.5" enable-background="new 0 0 129.5 129.5" xml:space="preserve"><g><g><g><path fill="#231F20" d="M18.6,76.8c-2.8,0-5.1-2.3-5.1-5.1c0-2.8,2.3-5.1,5.1-5.1c2.8,0,5.1,2.3,5.1,5.1     C23.7,74.5,21.4,76.8,18.6,76.8z M18.6,68.2c-2,0-3.6,1.6-3.6,3.6c0,2,1.6,3.6,3.6,3.6c2,0,3.6-1.6,3.6-3.6     C22.2,69.8,20.6,68.2,18.6,68.2z"></path></g><g><path fill="#FFD05B" d="M73.2,98.2H61.2c-4.3,2.8-7.2,8.5-7.2,15c0,2,0.3,3.9,0.8,5.7c1-3.5,2.8-6.5,5.2-8.5     c-0.4,6.9,2,13.9,7.3,19.1c5.2-5.2,7.7-12.2,7.3-19.1c2.4,2,4.2,5,5.2,8.5c0.5-1.8,0.8-3.7,0.8-5.7     C80.5,106.7,77.5,101,73.2,98.2z"></path></g><g><path fill="#FF7058" d="M70.2,98.2h-6c-2.1,1.4-3.6,4.2-3.6,7.5c0,1,0.1,1.9,0.4,2.8c0.5-1.7,1.4-3.2,2.6-4.2     c-0.2,3.4,1,6.9,3.6,9.5c2.6-2.6,3.8-6.1,3.6-9.5c1.2,1,2.1,2.5,2.6,4.2c0.2-0.9,0.4-1.8,0.4-2.8C73.8,102.4,72.4,99.6,70.2,98.2     z"></path></g><path fill="#FFFFFF" d="M77.1,97.9H57.3L45.5,63.7c-10.6-37.4,21.8-63,21.8-63l0,0c0,0,32.3,25.5,21.8,63L77.1,97.9z"></path><g><path fill="#E6E9EE" d="M87.1,63.1L75.7,95.9h-17L47.4,63.1c-4.6-16.5-0.5-30.7,5.3-41.2c4.5-3.1,9.4-4.7,14.6-4.7     c5.1,0,10,1.6,14.5,4.7C87.6,32.4,91.7,46.6,87.1,63.1z"></path></g><path fill="#FF7058" d="M83.4,20.5c-4.8-3.4-10.4-5.4-16.2-5.4c-5.9,0-11.4,1.9-16.2,5.4C58,8,67.2,0.7,67.2,0.7S76.5,8,83.4,20.5    z"></path><path fill="#231F20" d="M87.4,70.6l2.3-6.7C100.3,26.4,68,0.4,67.7,0.2c-0.3-0.2-0.7-0.2-0.9,0c-0.3,0.3-32.6,26.3-22,63.8    l2.3,6.7c-7.9,6.8-11.2,17.6-8.5,27.6l5.6,20.9c0.1,0.3,0.4,0.6,0.7,0.6c0,0,0,0,0,0c0.4,0,0.6-0.3,0.7-0.6l3.6-22.5l5.6-3.4    l1.7,5c0.1,0.3,0.4,0.5,0.7,0.5h19.8c0.3,0,0.6-0.2,0.7-0.5l1.7-5l5.6,3.4l3.6,22.5c0.1,0.4,0.3,0.6,0.7,0.6c0,0,0,0,0,0    c0.3,0,0.6-0.2,0.7-0.6l5.6-20.9C98.6,88.2,95.2,77.4,87.4,70.6z M67.2,1.7c1.8,1.5,8.2,7.3,13.8,16.4c-4.3-2.5-9.1-3.7-13.8-3.7    c-4.8,0-9.5,1.3-13.8,3.7C59,9.1,65.5,3.2,67.2,1.7z M48.2,95.5c-0.2,0.1-0.3,0.3-0.4,0.5l-3.1,19.3L40,97.9    c-2.5-9.3,0.5-19.3,7.6-25.7l6.8,19.6L48.2,95.5z M76.6,97.2H57.8L46.2,63.5c-4.8-17.1-0.5-31.7,5.5-42.5    c4.8-3.3,10.1-5.1,15.5-5.1c5.5,0,10.7,1.7,15.5,5.1c6,10.8,10.3,25.4,5.5,42.5L76.6,97.2z M94.4,97.9l-4.7,17.5L86.6,96    c0-0.2-0.2-0.4-0.4-0.5l-6.2-3.8l6.8-19.6C93.9,78.6,96.9,88.6,94.4,97.9z"></path><g><circle fill="#84DBFF" cx="67.2" cy="38.7" r="11.3"></circle><path fill="#231F20" d="M67.2,50.7c-6.6,0-12-5.4-12-12c0-6.6,5.4-12,12-12c6.6,0,12,5.4,12,12C79.3,45.3,73.9,50.7,67.2,50.7z      M67.2,28.2c-5.8,0-10.5,4.7-10.5,10.5c0,5.8,4.7,10.5,10.5,10.5s10.5-4.7,10.5-10.5C77.8,32.9,73,28.2,67.2,28.2z"></path></g><g><line fill="#FFFFFF" x1="34.9" y1="0.9" x2="34.9" y2="22.2"></line><rect x="34.4" y="0.9" fill="#231F20" width="1" height="21.3"></rect></g><g><line fill="#FFFFFF" x1="29.1" y1="13.2" x2="29.1" y2="29.5"></line><rect x="28.6" y="13.2" fill="#231F20" width="1" height="16.3"></rect></g><g><path fill="#231F20" d="M32.7,35h-1.5v-0.4h1.5V35z M32.7,32.7h-1.5v-1h1.5V32.7z M32.7,29.6h-1.5v-1h1.5V29.6z M32.7,26.6h-1.5     v-1h1.5V26.6z M32.7,23.6h-1.5v-1h1.5V23.6z M32.7,20.6h-1.5v-1h1.5V20.6z M32.7,17.6h-1.5v-1h1.5V17.6z M32.7,14.6h-1.5v-1h1.5     V14.6z M32.7,11.5h-1.5v-1h1.5V11.5z M32.7,8.5h-1.5v-1h1.5V8.5z"></path></g><g><line fill="#FFFFFF" x1="32" y1="102.7" x2="32" y2="119.4"></line><rect x="31.5" y="102.7" fill="#231F20" width="1" height="16.7"></rect></g><g><line fill="#FFFFFF" x1="26.3" y1="112.4" x2="26.3" y2="125.2"></line><rect x="25.8" y="112.4" fill="#231F20" width="1" height="12.8"></rect></g><g><path fill="#231F20" d="M29.9,129.5h-1.5V129h1.5V129.5z M29.9,127h-1.5v-1h1.5V127z M29.9,124h-1.5v-1h1.5V124z M29.9,120.9     h-1.5v-1h1.5V120.9z M29.9,117.9h-1.5v-1h1.5V117.9z M29.9,114.9h-1.5v-1h1.5V114.9z M29.9,111.9h-1.5v-1h1.5V111.9z M29.9,108.9     h-1.5v-1h1.5V108.9z"></path></g><g><g><line fill="#FFFFFF" x1="113.8" y1="44.8" x2="113.8" y2="66.1"></line><rect x="113.3" y="44.8" fill="#231F20" width="1" height="21.3"></rect></g><g><line fill="#FFFFFF" x1="108.1" y1="57.1" x2="108.1" y2="73.4"></line><rect x="107.6" y="57.1" fill="#231F20" width="1" height="16.3"></rect></g><g><path fill="#231F20" d="M111.7,78.9h-1.5v-0.4h1.5V78.9z M111.7,76.6h-1.5v-1h1.5V76.6z M111.7,73.5h-1.5v-1h1.5V73.5z       M111.7,70.5h-1.5v-1h1.5V70.5z M111.7,67.5h-1.5v-1h1.5V67.5z M111.7,64.5h-1.5v-1h1.5V64.5z M111.7,61.5h-1.5v-1h1.5V61.5z       M111.7,58.5h-1.5v-1h1.5V58.5z M111.7,55.4h-1.5v-1h1.5V55.4z M111.7,52.4h-1.5v-1h1.5V52.4z"></path></g></g><g><path fill="#231F20" d="M119.1,11.8c-0.2,0-0.4-0.1-0.5-0.2c-0.3-0.3-0.3-0.8,0-1.1l1.3-1.3c0.3-0.3,0.8-0.3,1.1,0     c0.3,0.3,0.3,0.8,0,1.1l-1.3,1.3C119.4,11.7,119.2,11.8,119.1,11.8z"></path></g><g><path fill="#231F20" d="M115,15.9c-0.2,0-0.4-0.1-0.5-0.2c-0.3-0.3-0.3-0.8,0-1.1l1.3-1.3c0.3-0.3,0.8-0.3,1.1,0     c0.3,0.3,0.3,0.8,0,1.1l-1.3,1.3C115.4,15.8,115.2,15.9,115,15.9z"></path></g><g><path fill="#231F20" d="M120.3,15.9c-0.2,0-0.4-0.1-0.5-0.2l-1.3-1.3c-0.3-0.3-0.3-0.8,0-1.1s0.8-0.3,1.1,0l1.3,1.3     c0.3,0.3,0.3,0.8,0,1.1C120.7,15.8,120.5,15.9,120.3,15.9z"></path></g><g><path fill="#231F20" d="M116.3,11.8c-0.2,0-0.4-0.1-0.5-0.2l-1.3-1.3c-0.3-0.3-0.3-0.8,0-1.1c0.3-0.3,0.8-0.3,1.1,0l1.3,1.3     c0.3,0.3,0.3,0.8,0,1.1C116.7,11.7,116.5,11.8,116.3,11.8z"></path></g><g><path fill="#231F20" d="M14.3,51.4c-0.2,0-0.4-0.1-0.5-0.2c-0.3-0.3-0.3-0.8,0-1.1l1.3-1.3c0.3-0.3,0.8-0.3,1.1,0     c0.3,0.3,0.3,0.8,0,1.1l-1.3,1.3C14.7,51.3,14.5,51.4,14.3,51.4z"></path></g><g><path fill="#231F20" d="M10.3,55.4c-0.2,0-0.4-0.1-0.5-0.2c-0.3-0.3-0.3-0.8,0-1.1l1.3-1.3c0.3-0.3,0.8-0.3,1.1,0     c0.3,0.3,0.3,0.8,0,1.1l-1.3,1.3C10.6,55.4,10.5,55.4,10.3,55.4z"></path></g><g><path fill="#231F20" d="M15.6,55.4c-0.2,0-0.4-0.1-0.5-0.2l-1.3-1.3c-0.3-0.3-0.3-0.8,0-1.1c0.3-0.3,0.8-0.3,1.1,0l1.3,1.3     c0.3,0.3,0.3,0.8,0,1.1C16,55.4,15.8,55.4,15.6,55.4z"></path></g><g><path fill="#231F20" d="M11.6,51.4c-0.2,0-0.4-0.1-0.5-0.2l-1.3-1.3c-0.3-0.3-0.3-0.8,0-1.1c0.3-0.3,0.8-0.3,1.1,0l1.3,1.3     c0.3,0.3,0.3,0.8,0,1.1C11.9,51.3,11.7,51.4,11.6,51.4z"></path></g><g><path fill="#231F20" d="M113.7,116.3c-0.2,0-0.4-0.1-0.5-0.2c-0.3-0.3-0.3-0.8,0-1.1l1.3-1.3c0.3-0.3,0.8-0.3,1.1,0     c0.3,0.3,0.3,0.8,0,1.1l-1.3,1.3C114.1,116.2,113.9,116.3,113.7,116.3z"></path></g><g><path fill="#231F20" d="M109.7,120.4c-0.2,0-0.4-0.1-0.5-0.2c-0.3-0.3-0.3-0.8,0-1.1l1.3-1.3c0.3-0.3,0.8-0.3,1.1,0     c0.3,0.3,0.3,0.8,0,1.1l-1.3,1.3C110,120.3,109.8,120.4,109.7,120.4z"></path></g><g><path fill="#231F20" d="M115,120.4c-0.2,0-0.4-0.1-0.5-0.2l-1.3-1.3c-0.3-0.3-0.3-0.8,0-1.1c0.3-0.3,0.8-0.3,1.1,0l1.3,1.3     c0.3,0.3,0.3,0.8,0,1.1C115.4,120.3,115.2,120.4,115,120.4z"></path></g><g><path fill="#231F20" d="M110.9,116.3c-0.2,0-0.4-0.1-0.5-0.2l-1.3-1.3c-0.3-0.3-0.3-0.8,0-1.1c0.3-0.3,0.8-0.3,1.1,0l1.3,1.3     c0.3,0.3,0.3,0.8,0,1.1C111.3,116.2,111.1,116.3,110.9,116.3z"></path></g><g><circle fill="#84DBFF" cx="18.6" cy="18" r="3.2"></circle></g><g><circle fill="#E6E9EE" cx="113.7" cy="32.1" r="3.2"></circle></g><g><circle fill="#FF7058" cx="106.8" cy="95.9" r="3.2"></circle></g><g><circle fill="#FFD05B" cx="11.6" cy="106" r="3.2"></circle></g></g></g></svg>
